<?xml version="1.0" standalone="no"?>
<!DOCTYPE svg PUBLIC "-//W3C//DTD SVG 20010904//EN"
 "http://www.w3.org/TR/2001/REC-SVG-20010904/DTD/svg10.dtd">
<svg version="1.0" xmlns="http://www.w3.org/2000/svg"
 width="700.000000pt" height="700.000000pt" viewBox="0 0 700.000000 700.000000"
 preserveAspectRatio="xMidYMid meet">
<metadata>
Created by potrace 1.14, written by Peter Selinger 2001-2017
</metadata>
<g transform="translate(0.000000,700.000000) scale(0.100000,-0.100000)"
fill="#000000" stroke="none">
<path d="M3215 6880 c-1273 -113 -2369 -918 -2854 -2098 -111 -271 -183 -545
-227 -867 -25 -184 -25 -646 0 -830 58 -422 163 -764 346 -1125 592 -1164
1812 -1888 3115 -1847 275 9 446 31 700 92 1237 295 2211 1274 2504 2515 66
279 85 454 85 775 1 331 -22 528 -93 821 -314 1280 -1377 2282 -2671 2518
-254 46 -665 67 -905 46z m-603 -1643 c33 -10 1825 -1090 2445 -1474 138 -85
187 -165 188 -303 0 -71 -4 -94 -26 -141 -14 -30 -43 -72 -64 -92 -21 -20
-178 -117 -349 -216 -1692 -972 -2157 -1236 -2196 -1248 -154 -48 -344 44
-399 193 -21 54 -21 65 -21 1544 0 1479 0 1490 21 1544 32 87 122 167 219 197
41 12 134 10 182 -4z"/>
</g>
</svg>
